<?xml version="1.0" encoding="utf-8"?>
<!-- Generator: Adobe Illustrator 19.1.0, SVG Export Plug-In . SVG Version: 6.00 Build 0)  -->
<svg version="1.1" id="Layer_1" xmlns:sketch="http://www.bohemiancoding.com/sketch/ns"
	 xmlns="http://www.w3.org/2000/svg" xmlns:xlink="http://www.w3.org/1999/xlink" x="0px" y="0px" viewBox="-169 170 161 161"
	 style="enable-background:new -169 170 161 161;" xml:space="preserve">
<style type="text/css">
	.st0{fill:#F8E81C;}
	.st1{fill:none;stroke:#4A4A4A;}
	.st2{enable-background:new    ;}
</style>
<title>Rectangle 20 + iOS Copy</title>
<desc>Created with Sketch.</desc>
<g id="Page-1" sketch:type="MSPage">
	<g id="Desktop-HD" transform="translate(-1039.000000, -2854.000000)" sketch:type="MSArtboardGroup">
		<g id="Rectangle-20-_x2B_-iOS-Copy" transform="translate(1042.000000, 2857.000000)" sketch:type="MSLayerGroup">
			<g id="Rectangle-20" sketch:type="MSShapeGroup">
				<path class="st0" d="M-135,174h87c16.6,0,30,13.4,30,30v87c0,16.6-13.4,30-30,30h-87c-16.6,0-30-13.4-30-30v-87
					C-165,187.4-151.6,174-135,174z"/>
				<path class="st1" d="M-135,174h87c16.6,0,30,13.4,30,30v87c0,16.6-13.4,30-30,30h-87c-16.6,0-30-13.4-30-30v-87
					C-165,187.4-151.6,174-135,174z"/>
			</g>
			<g class="st2">
				<path d="M-134.6,231.5l4.2,28.5h-7.6l-0.4-5.1h-2.6l-0.4,5.1h-7.7l3.8-28.5H-134.6z M-138.5,249.8c-0.4-3.2-0.8-7.2-1.1-12
					c-0.8,5.4-1.2,9.4-1.4,12H-138.5z"/>
				<path d="M-122.1,236.7l-0.1,2.1c0.5-0.9,1.1-1.5,1.9-1.9s1.6-0.6,2.6-0.6c1.2,0,2.2,0.3,3,0.9s1.3,1.3,1.5,2.2s0.3,2.3,0.3,4.4
					V260h-7.1v-16.2c0-1.6-0.1-2.6-0.2-2.9s-0.4-0.5-0.9-0.5c-0.5,0-0.8,0.2-0.9,0.6s-0.2,1.5-0.2,3.2V260h-7.1v-23.3H-122.1z"/>
				<path d="M-94.3,231.5V260h-7.1v-1.7c-0.7,0.7-1.4,1.2-2.1,1.6c-0.8,0.4-1.5,0.5-2.4,0.5c-1.1,0-2.1-0.3-2.9-0.9s-1.3-1.3-1.6-2
					s-0.3-2-0.3-3.7v-10.9c0-1.8,0.1-3.1,0.3-3.8s0.8-1.4,1.6-2s1.8-0.9,2.9-0.9c0.9,0,1.7,0.2,2.4,0.5c0.7,0.3,1.4,0.8,2,1.4v-6.6
					H-94.3z M-101.4,242.5c0-0.9-0.1-1.4-0.2-1.7s-0.4-0.4-0.9-0.4c-0.4,0-0.7,0.1-0.9,0.4s-0.2,0.9-0.2,1.8V254
					c0,0.9,0.1,1.6,0.2,1.9s0.4,0.4,0.8,0.4c0.5,0,0.8-0.2,0.9-0.5s0.2-1.2,0.2-2.5V242.5z"/>
				<path d="M-84.7,236.7l-0.3,3.1c1-2.2,2.5-3.4,4.5-3.5v8.2c-1.3,0-2.3,0.2-2.9,0.5s-1,0.8-1.1,1.5s-0.2,2.1-0.2,4.3v9.2h-7.1
					v-23.3H-84.7z"/>
				<path d="M-62.8,244.9v5.7c0,2.1-0.1,3.6-0.3,4.6s-0.7,1.9-1.4,2.7s-1.6,1.5-2.7,1.9s-2.3,0.6-3.7,0.6c-1.6,0-2.9-0.2-4-0.5
					s-1.9-0.9-2.5-1.6s-1-1.5-1.3-2.5s-0.4-2.5-0.4-4.5v-6c0-2.2,0.2-3.9,0.7-5.1s1.3-2.2,2.5-2.9s2.8-1.1,4.7-1.1
					c1.6,0,3,0.2,4.1,0.7s2,1.1,2.6,1.9s1,1.5,1.3,2.4S-62.8,243.2-62.8,244.9z M-69.9,243.1c0-1.2-0.1-1.9-0.2-2.3
					s-0.4-0.5-0.8-0.5s-0.7,0.2-0.8,0.5s-0.2,1.1-0.2,2.3v10.5c0,1.1,0.1,1.8,0.2,2.2s0.4,0.5,0.8,0.5c0.4,0,0.7-0.2,0.8-0.5
					s0.2-1,0.2-2V243.1z"/>
				<path d="M-53.2,231.5v3.7h-7.3v-3.7H-53.2z M-53.2,236.7V260h-7.3v-23.3H-53.2z"/>
				<path d="M-34.5,231.5V260h-7.1v-1.7c-0.7,0.7-1.4,1.2-2.1,1.6c-0.8,0.4-1.5,0.5-2.4,0.5c-1.1,0-2.1-0.3-2.9-0.9s-1.3-1.3-1.6-2
					s-0.3-2-0.3-3.7v-10.9c0-1.8,0.1-3.1,0.3-3.8s0.8-1.4,1.6-2s1.8-0.9,2.9-0.9c0.9,0,1.7,0.2,2.4,0.5c0.7,0.3,1.4,0.8,2,1.4v-6.6
					H-34.5z M-41.6,242.5c0-0.9-0.1-1.4-0.2-1.7s-0.4-0.4-0.9-0.4c-0.4,0-0.7,0.1-0.9,0.4s-0.2,0.9-0.2,1.8V254
					c0,0.9,0.1,1.6,0.2,1.9s0.4,0.4,0.8,0.4c0.5,0,0.8-0.2,0.9-0.5s0.2-1.2,0.2-2.5V242.5z"/>
			</g>
		</g>
	</g>
</g>
</svg>
