<?xml version="1.0" encoding="utf-8"?>
<!-- Generator: Adobe Illustrator 19.1.0, SVG Export Plug-In . SVG Version: 6.00 Build 0)  -->
<svg version="1.1" xmlns="http://www.w3.org/2000/svg" xmlns:xlink="http://www.w3.org/1999/xlink" x="0px" y="0px"
	 viewBox="-190 181 118 140" style="enable-background:new -190 181 118 140;" xml:space="preserve">
<style type="text/css">
	.st0{display:none;}
	.st1{display:inline;fill:#574FFF;}
	.st2{fill:#FFFFFF;stroke:#4A4A4A;stroke-miterlimit:10;}
</style>
<g id="Layer_2" class="st0">
	<rect x="-190" y="181" class="st1" width="117.6" height="139.4"/>
</g>
<g id="Layer_1" xmlns:sketch="http://www.bohemiancoding.com/sketch/ns">
	<title>{ }</title>
	<desc>Created with Sketch.</desc>
	<g id="Page-1" sketch:type="MSPage">
		<g id="Desktop-HD" transform="translate(-239.000000, -408.000000)" sketch:type="MSArtboardGroup">
			<path id="_x7B_-_x7D_" sketch:type="MSShapeGroup" class="st2" d="M49,653.5c2.3,0,4.3-0.4,5.9-1.2c1.6-0.8,3-1.9,4.1-3.2
				s1.9-2.8,2.4-4.5c0.5-1.7,0.8-3.4,0.8-5.1v-25.9c0-3.9,0.4-7.4,1.3-10.5c0.9-3.1,2.4-5.6,4.5-7.7c2.1-2.1,4.9-3.6,8.4-4.8
				c3.5-1.1,7.8-1.7,13-1.7H90v10.5c-5.5,0-9.4,1-11.7,3c-2.4,2-3.5,5.7-3.5,11.3v22.2c0,6.3-0.8,11.2-2.5,14.7
				c-1.7,3.5-4.1,6.1-7.1,8.1c3.1,1.9,5.4,4.6,7.1,8.1c1.7,3.5,2.5,8.4,2.5,14.7v22.2c0,5.6,1.2,9.3,3.5,11.3c2.4,2,6.3,3,11.7,3
				v10.5h-0.6c-5.2,0-9.5-0.5-13-1.6c-3.5-1.1-6.3-2.6-8.4-4.8c-2.1-2.1-3.6-4.7-4.5-7.8c-0.9-3.1-1.3-6.6-1.3-10.5v-25.9
				c0-1.7-0.3-3.4-0.8-5.1c-0.5-1.7-1.3-3.2-2.4-4.5s-2.5-2.4-4.1-3.2c-1.6-0.8-3.6-1.2-5.9-1.2V653.5z M166.6,663.9
				c-2.3,0-4.3,0.4-5.9,1.2c-1.6,0.8-3,1.9-4.1,3.2c-1.1,1.3-1.9,2.8-2.4,4.5c-0.5,1.7-0.8,3.4-0.8,5.1v25.9c0,3.9-0.4,7.4-1.3,10.5
				c-0.9,3.1-2.4,5.7-4.5,7.8c-2.1,2.1-4.9,3.7-8.4,4.8c-3.5,1.1-7.8,1.6-13,1.6h-0.6v-10.5c5.5,0,9.4-1,11.7-3s3.5-5.7,3.5-11.3
				v-22.2c0-6.3,0.8-11.2,2.5-14.7c1.7-3.5,4.1-6.1,7.1-8.1c-3.1-1.9-5.4-4.6-7.1-8.1c-1.7-3.5-2.5-8.4-2.5-14.7v-22.2
				c0-5.6-1.2-9.3-3.5-11.3s-6.3-3-11.7-3V589h0.6c5.2,0,9.5,0.6,13,1.7s6.3,2.7,8.4,4.8c2.1,2.1,3.6,4.6,4.5,7.7s1.3,6.6,1.3,10.5
				v25.9c0,1.7,0.3,3.4,0.8,5.1c0.5,1.7,1.3,3.2,2.4,4.5c1.1,1.3,2.5,2.4,4.1,3.2c1.6,0.8,3.6,1.2,5.9,1.2V663.9z"/>
		</g>
	</g>
</g>
</svg>
