<?xml version="1.0" encoding="utf-8"?>
<!-- Generator: Adobe Illustrator 19.1.0, SVG Export Plug-In . SVG Version: 6.00 Build 0)  -->
<svg version="1.1" id="Layer_1" xmlns:sketch="http://www.bohemiancoding.com/sketch/ns"
	 xmlns="http://www.w3.org/2000/svg" xmlns:xlink="http://www.w3.org/1999/xlink" x="0px" y="0px" viewBox="174.4 102.5 151.1 295"
	 style="enable-background:new 174.4 102.5 151.1 295;" xml:space="preserve">
<style type="text/css">
	.st0{fill:none;stroke:#FFFFFF;stroke-width:2;}
</style>
<title>iPhone6 outline</title>
<desc>Created with Sketch.</desc>
<g id="Page-1" sketch:type="MSPage">
	<g id="Desktop-HD" transform="translate(-267.000000, -3138.000000)" sketch:type="MSArtboardGroup">
		<path id="iPhone6-outline_1_" sketch:type="MSShapeGroup" class="st0" d="M444,3360.3h-0.8c-0.4,0-0.8-0.4-0.8-0.8v-20.2
			c0-0.4,0.3-0.8,0.8-0.8h0.8v-12.8h-0.4c-0.6,0-1.1-0.5-1.1-1.1v-19.5c0-0.6,0.5-1.1,1.1-1.1h0.4v-12.6h-0.4
			c-0.6,0-1.1-0.5-1.1-1.1v-8.3c0-0.6,0.5-1.1,1.1-1.1h0.6l-0.1-16.9c-0.1-12.4,9.9-22.5,22.4-22.5h101c12.4,0,22.5,10.1,22.5,22.5
			v40.1h0.4c0.6,0,1.1,0.5,1.1,1.1v19.2c0,0.6-0.5,1.1-1.1,1.1H590V3512c0,12.4-10.1,22.5-22.5,22.5h-101
			c-12.4,0-22.5-10.1-22.5-22.5V3360.3z M453.5,3277.7c0-0.8,0.7-1.5,1.5-1.5h124c0.8,0,1.5,0.7,1.5,1.5v219.9
			c0,0.8-0.7,1.5-1.5,1.5H455c-0.8,0-1.5-0.7-1.5-1.5V3277.7z M494.1,3263.5c1.2,0,2.3-1,2.3-2.2s-1-2.2-2.3-2.2
			c-1.2,0-2.3,1-2.3,2.2C492,3262.5,493,3263.5,494.1,3263.5z M506,3261.3c0-1.2,1-2.2,2.2-2.2h23.4c1.2,0,2.2,1,2.2,2.2
			s-1,2.2-2.2,2.2h-23.4C507,3263.5,506,3262.5,506,3261.3z M516.8,3527.7c6.2,0,11.3-5,11.3-11.2s-5.1-11.2-11.3-11.2
			s-11.3,5-11.3,11.2C505.5,3522.6,510.6,3527.7,516.8,3527.7z"/>
	</g>
</g>
</svg>
