<?xml version="1.0" encoding="utf-8"?>
<!-- Generator: Adobe Illustrator 19.1.0, SVG Export Plug-In . SVG Version: 6.00 Build 0)  -->
<svg version="1.1" id="Layer_1" xmlns="http://www.w3.org/2000/svg" xmlns:xlink="http://www.w3.org/1999/xlink" x="0px" y="0px"
	 viewBox="0 0 627 627" style="enable-background:new 0 0 627 627;" xml:space="preserve">
<style type="text/css">
	.st0{enable-background:new    ;}
	.st1{clip-path:url(#SVGID_2_);fill:none;stroke:#FFFFFF;stroke-width:27;stroke-miterlimit:10;}
	.st2{clip-path:url(#SVGID_4_);}
	.st3{clip-path:url(#SVGID_6_);fill:#FFFFFF;}
</style>
<g class="st0">
	<g>
		<g>
			<defs>
				<rect id="SVGID_1_" width="627" height="627"/>
			</defs>
			<clipPath id="SVGID_2_">
				<use xlink:href="#SVGID_1_"  style="overflow:visible;"/>
			</clipPath>
			<circle class="st1" cx="313.5" cy="313.5" r="298.5"/>
		</g>
		<g>
			<defs>
				<path id="SVGID_3_" d="M361.6,190c0-4.7-8.1-7-24.2-7h-4.7l-6.6,0.4c-9.4,0.5-14,2.2-14,5.1c0,0.5,7.7,23,23,67.5
					c6-13,13-30.2,21.1-51.5c1-2.9,2.6-6.6,4.7-11.3L361.6,190z M502.4,178.3c0,2.3-4.4,3.6-13.3,3.9c-9.9,0.3-16.4,3.5-19.7,9.8
					s-8.3,19.5-15,39.8c-11.7,35.6-22.1,65.9-31.2,90.9c-15.6,42.6-29.8,83.8-42.5,123.6c-1,3.4-2.3,5.1-3.9,5.1
					c-1.3,0-2.5-1.3-3.7-3.9c-1.2-2.6-4.6-11.7-10.3-27.3c-7.3-20.3-15.2-40.7-23.8-61.2c-6.8-16.1-13.4-32.8-19.9-49.9
					c-18.2,43.9-36.3,89.8-54.2,137.7c-1,3.1-2.3,4.7-3.9,4.7c-1.3,0-2.9-2.2-4.7-6.6c-8.1-19.2-38-98.9-89.7-239.1
					c-3.6-9.9-6.4-16.1-8.2-18.5c-1.8-2.5-6.4-3.8-13.6-4.1c-12.5-0.5-18.7-2.3-18.7-5.5c0-2.3,2.1-3.5,6.2-3.5
					c1.8,0,3.4,0.1,4.7,0.4c13.8,0.8,28.6,1.2,44.5,1.2c3.1,0,8.5-0.2,16.2-0.6c7.7-0.4,17.6-0.6,29.8-0.6h4.3
					c4.4,0,6.6,1.2,6.6,3.5c0,2.9-4,4.4-12.1,4.7c-16.1,0.5-24.2,2.6-24.2,6.2c0,7.3,23.9,75,71.8,203.2
					c17.4-43.9,30.4-76.3,39-97.1l-38.6-99.8c-2.1-5.5-4.5-9-7.2-10.5c-2.7-1.6-7.7-2.5-15-2.7c-7.3-0.3-10.9-1.4-10.9-3.5
					c0-2.9,2.7-4.3,8.2-4.3c4.2,0,9.2,0.3,15.2,0.8c6,0.5,16.4,0.8,31.2,0.8h29.6l42.9,0.8c9.6,0,21.2-0.5,34.7-1.6
					c1.6-0.3,3.4-0.4,5.5-0.4c6.2,0,9.4,1.3,9.4,3.9c0,2.3-2.2,3.5-6.6,3.5h-6.6c-11.7,0-20.5,1.6-26.5,4.7
					c-2.6,1.3-7.4,10.7-14.4,28.1c-3.1,7.3-8.3,19.6-15.6,37c-1.6,3.9-3.9,9.8-7,17.6c1.8,5.2,7.5,19.6,17.2,43.3
					c12.5,30.2,22.8,56,30.8,77.6c14.6-42.1,31.7-91.9,51.5-149.4c10.4-30.4,15.6-47.3,15.6-50.7c0-4.9-4.5-7.4-13.6-7.4
					c-12.7,0-19.1-1.4-19.1-4.3c0-2.6,2.6-3.9,7.8-3.9c4.4,0,7.9,0.1,10.5,0.4c5.7,0.5,10.9,0.8,15.6,0.8l31.2-0.4
					c7.8,0,12.1,0.3,12.9,1C502,176.8,502.4,177.5,502.4,178.3z"/>
			</defs>
			<clipPath id="SVGID_4_">
				<use xlink:href="#SVGID_3_"  style="overflow:visible;"/>
			</clipPath>
			<g class="st2">
				<defs>
					<rect id="SVGID_5_" width="627" height="627"/>
				</defs>
				<clipPath id="SVGID_6_">
					<use xlink:href="#SVGID_5_"  style="overflow:visible;"/>
				</clipPath>
				<rect x="111" y="159" class="st3" width="406.3" height="307.3"/>
			</g>
		</g>
	</g>
</g>
</svg>
