<?xml version="1.0" encoding="utf-8"?>
<!-- Generator: Adobe Illustrator 19.1.0, SVG Export Plug-In . SVG Version: 6.00 Build 0)  -->
<svg version="1.1" xmlns="http://www.w3.org/2000/svg" xmlns:xlink="http://www.w3.org/1999/xlink" x="0px" y="0px"
	 viewBox="0 0 234.1 342.1" style="enable-background:new 0 0 234.1 342.1;" xml:space="preserve">
<style type="text/css">
	.st0{fill:#FFFFFF;stroke:#000000;stroke-width:5;stroke-miterlimit:10;}
	.st1{fill:#999999;stroke:#000000;stroke-width:5;stroke-miterlimit:10;}
	.st2{fill:none;stroke:#000000;stroke-width:5;stroke-miterlimit:10;}
	.st3{fill:#FFFFFF;stroke:#000000;stroke-width:2;stroke-miterlimit:10;}
</style>
<g id="Background">
</g>
<g id="Flask">
	
		<image style="overflow:visible;opacity:0.75;" width="1601" height="1817" xlink:href="237810934934B24E.png"  transform="matrix(0.24 0 0 0.24 -60 -13.8229)">
	</image>
	<g>
		<g>
			<g>
				<path class="st0" d="M230.2,298.7c-25.3-42.2-49.5-84.8-75.6-126.5c-0.4-0.7-1-1.8-1-2V69.4h-72v100.8c-0.7,1-1.1,1.3-1.6,2
					c-29.2,39.6-50.7,84.3-76,126.5c-4.1,6.5,0.7,16.1,11.1,20.5c65.3,27.2,138.8,27.2,204.1,0C229.4,314.8,234.3,305.2,230.2,298.7
					z"/>
				<path class="st1" d="M153.7,66.7c0,4.4-16.8,8-36.7,8s-35.7-3.6-35.7-8s15.8-8,35.7-8S153.7,62.3,153.7,66.7z"/>
			</g>
		</g>
	</g>
</g>
<g id="Circuits">
	<path class="st2" d="M6,295.3c-0.6,0.9-1.1,1.7-1.7,2.6c-0.7,1-1.4,2.1-1.3,3.3"/>
	<path class="st2" d="M117.5,295.9V74c-1-0.2,0.8-18.2-5.1-21.8c-9.8-5.9-12.4-8.5-17-14.1c-7.1-8.7-8.2-28.3-7.8-38"/>
	<g>
		<g>
			<path class="st2" d="M117,246.7c34.3,34.3,33.7,34.6,33.7,34.6l0.6,34.6"/>
		</g>
		<g>
			<path class="st2" d="M117.5,246.7c-34.3,34.3-33.7,34.6-33.7,34.6L83.2,316"/>
		</g>
	</g>
	<circle class="st3" cx="83" cy="316.1" r="4.9"/>
	<circle class="st3" cx="152" cy="316.1" r="4.9"/>
	<circle class="st3" cx="117" cy="291.1" r="4.9"/>
	<path class="st2" d="M179.1,314.8l-0.1-40.5l-42.8-48c0-64.6,1.6-98.9-0.5-163.3c0-2-1-5-2-7s-2-4-4-5c-20-9-24-32-23.2-50.8"/>
	<path class="st2" d="M55,314.8l0.1-40.5l43.1-48c0-64.6,1.6-98.9-0.5-163.3c0-2-1-5-2-7s-2-4-4-5c-20-9-24-32-23.2-50.8"/>
	<circle class="st3" cx="55" cy="316.1" r="4.9"/>
	<circle class="st3" cx="179" cy="315.1" r="4.9"/>
</g>
</svg>
