<?xml version="1.0" encoding="UTF-8" standalone="no"?>
<svg width="118px" height="140px" viewBox="0 0 118 140" version="1.1" xmlns="http://www.w3.org/2000/svg" xmlns:xlink="http://www.w3.org/1999/xlink" xmlns:sketch="http://www.bohemiancoding.com/sketch/ns">
    <!-- Generator: Sketch 3.4.2 (15857) - http://www.bohemiancoding.com/sketch -->
    <title>{ }</title>
    <desc>Created with Sketch.</desc>
    <defs></defs>
    <g id="Page-1" stroke="none" stroke-width="1" fill="none" fill-rule="evenodd" sketch:type="MSPage">
        <g id="Desktop-HD" sketch:type="MSArtboardGroup" transform="translate(-239.000000, -408.000000)" fill="#FFFFFF">
            <path d="M239,472.512 C241.304012,472.512 243.271992,472.104004 244.904,471.288 C246.536008,470.471996 247.903994,469.416006 249.008,468.12 C250.112006,466.823994 250.927997,465.336008 251.456,463.656 C251.984003,461.975992 252.248,460.272009 252.248,458.544 L252.248,432.624 C252.248,428.68798 252.679996,425.184015 253.544,422.112 C254.408004,419.039985 255.895989,416.47201 258.008,414.408 C260.120011,412.34399 262.927982,410.760006 266.432,409.656 C269.936018,408.551994 274.279974,408 279.464,408 L280.04,408 L280.04,418.512 C274.567973,418.512 270.656012,419.49599 268.304,421.464 C265.951988,423.43201 264.776,427.199972 264.776,432.768 L264.776,454.944 C264.776,461.280032 263.936008,466.175983 262.256,469.632 C260.575992,473.088017 258.200015,475.77599 255.128,477.696 C258.200015,479.61601 260.575992,482.303983 262.256,485.76 C263.936008,489.216017 264.776,494.111968 264.776,500.448 L264.776,522.624 C264.776,528.192028 265.951988,531.95999 268.304,533.928 C270.656012,535.89601 274.567973,536.88 280.04,536.88 L280.04,547.392 L279.464,547.392 C274.279974,547.392 269.936018,546.864005 266.432,545.808 C262.927982,544.751995 260.120011,543.168011 258.008,541.056 C255.895989,538.943989 254.408004,536.352015 253.544,533.28 C252.679996,530.207985 252.248,526.70402 252.248,522.768 L252.248,496.848 C252.248,495.119991 251.984003,493.416008 251.456,491.736 C250.927997,490.055992 250.112006,488.568006 249.008,487.272 C247.903994,485.975994 246.536008,484.920004 244.904,484.104 C243.271992,483.287996 241.304012,482.88 239,482.88 L239,472.512 Z M356.648,482.88 C354.343988,482.88 352.376008,483.287996 350.744,484.104 C349.111992,484.920004 347.744006,485.975994 346.64,487.272 C345.535994,488.568006 344.720003,490.055992 344.192,491.736 C343.663997,493.416008 343.4,495.119991 343.4,496.848 L343.4,522.768 C343.4,526.70402 342.968004,530.207985 342.104,533.28 C341.239996,536.352015 339.752011,538.943989 337.64,541.056 C335.527989,543.168011 332.720018,544.751995 329.216,545.808 C325.711982,546.864005 321.368026,547.392 316.184,547.392 L315.608,547.392 L315.608,536.88 C321.080027,536.88 324.991988,535.89601 327.344,533.928 C329.696012,531.95999 330.872,528.192028 330.872,522.624 L330.872,500.448 C330.872,494.111968 331.711992,489.216017 333.392,485.76 C335.072008,482.303983 337.447985,479.61601 340.52,477.696 C337.447985,475.77599 335.072008,473.088017 333.392,469.632 C331.711992,466.175983 330.872,461.280032 330.872,454.944 L330.872,432.768 C330.872,427.199972 329.696012,423.43201 327.344,421.464 C324.991988,419.49599 321.080027,418.512 315.608,418.512 L315.608,408 L316.184,408 C321.368026,408 325.711982,408.551994 329.216,409.656 C332.720018,410.760006 335.527989,412.34399 337.64,414.408 C339.752011,416.47201 341.239996,419.039985 342.104,422.112 C342.968004,425.184015 343.4,428.68798 343.4,432.624 L343.4,458.544 C343.4,460.272009 343.663997,461.975992 344.192,463.656 C344.720003,465.336008 345.535994,466.823994 346.64,468.12 C347.744006,469.416006 349.111992,470.471996 350.744,471.288 C352.376008,472.104004 354.343988,472.512 356.648,472.512 L356.648,482.88 Z" id="{-}" sketch:type="MSShapeGroup"></path>
        </g>
    </g>
</svg>