<?xml version="1.0" encoding="utf-8"?>
<!-- Generator: Adobe Illustrator 19.1.0, SVG Export Plug-In . SVG Version: 6.00 Build 0)  -->
<svg version="1.1" xmlns="http://www.w3.org/2000/svg" xmlns:xlink="http://www.w3.org/1999/xlink" x="0px" y="0px"
	 viewBox="-252 -61.2 623 623" style="enable-background:new -252 -61.2 623 623;" xml:space="preserve">
<style type="text/css">
	.st0{fill:none;stroke:#FFFFFF;stroke-width:6.7364;stroke-miterlimit:10;}
	.st1{fill:none;stroke:#FFFFFF;stroke-width:5.3891;stroke-miterlimit:10;}
	.st2{fill:none;stroke:#FFFFFF;stroke-width:2.6945;stroke-miterlimit:10;}
	.st3{fill:none;stroke:#FFFFFF;stroke-width:4.0418;stroke-miterlimit:10;}
	.st4{fill:none;stroke:#FFFFFF;stroke-width:27.3412;stroke-miterlimit:10;}
</style>
<g id="Layer_2">
</g>
<g id="Layer_1">
	<g id="Art">
		<g id="Controller_1_">
			<path id="Body_2_" class="st0" d="M229,184.5h-32.7l-51.7,0.1l0.1-0.1h-28.3l-28.6,21.7l-35.6-0.4l-35.6,0.5l-28.6-21.7h-28.3
				l0.1,0.1l-51.7-0.1h-32.6c0,0-22,21.6-22,56.6c0,15.1,1.3,66.3,14.8,97.4c16.8,38.8,41.2,56.5,66.4,68.8l43-54.4
				c0,0-8.8-4.7-22.1-18.2C-58.2,320.6-64.6,294-48,294c31.3,0,100.2,0.1,100.2,0.1s69-0.4,100.2-0.1c18.3,0.1,10.6,23.4-4.3,41.4
				c-9.3,11.2-21,17.5-20.9,17.4l42.4,54.6c25.2-12.3,49.6-30.2,66.4-68.8c13.6-31.1,14.8-82.2,14.8-97.3
				C250.9,206.1,229,184.5,229,184.5z"/>
			<polygon id="Left_Trigger" class="st1" points="-44.3,172.4 -90.5,172.4 -103,184.5 -99.1,184.5 -31.7,184.5 			"/>
			<polygon id="Left_Trigger_1_" class="st2" points="100.2,195.9 5.2,195.9 20.5,204.7 24.2,205.4 87.2,205.4 			"/>
			<polygon id="Right_Trigger" class="st1" points="148.9,172 195.1,172 207.5,184.1 203.6,184.1 136.3,184.1 			"/>
			<polygon id="Left_Pad" class="st3" points="-78,234.3 -78,222.2 -68.5,222.2 -68.5,234.3 -56.4,234.3 -56.4,242.4 -68.5,242.4 
				-68.5,254.6 -78,254.6 -78,242.4 -90.1,242.4 -90.1,234.3 			"/>
			<circle id="Right_Analog_Stick" class="st3" cx="87.2" cy="267.4" r="15.8"/>
			<circle id="Left_Analog_Stick" class="st3" cx="17.4" cy="267.4" r="15.8"/>
			<g id="Buttons">
				<circle class="st2" cx="194.1" cy="217.8" r="9.4"/>
				<circle class="st2" cx="212.5" cy="238" r="9.4"/>
				<circle class="st2" cx="175.6" cy="238" r="9.4"/>
				<circle class="st2" cx="194.1" cy="258.2" r="9.4"/>
			</g>
			<polyline class="st2" points="-43.6,171.7 -32,171.7 -19.5,184.5 			"/>
			<polyline class="st2" points="196.2,171.7 207.8,171.7 220.3,184.5 			"/>
			<path class="st3" d="M-46.8,293.9c0,0,5.7,24.7,14,33.5c13.2,14.1,18.6,15.8,18.6,15.8l-7.7,9.7"/>
			<path class="st3" d="M229.2,184l14.1,0.1c0,0,15.8,14.6,20.2,32.3c1.5,18.7-0.5,101.6-12.1,127.5c-11,24.7-34.4,54-57.4,63.2
				c-21.8,0.3-23.8,0-23.8,0"/>
			<path class="st0" d="M52.7,200.3c0,0-32.7-70.7,12.3-131.1s39.6-54.7,39.6-54.7"/>
		</g>
	</g>
	<circle class="st4" cx="59.5" cy="250.3" r="290.5"/>
</g>
</svg>
