<?xml version="1.0" encoding="utf-8"?>
<!-- Generator: Adobe Illustrator 19.1.0, SVG Export Plug-In . SVG Version: 6.00 Build 0)  -->
<svg version="1.1" id="Layer_1" xmlns:sketch="http://www.bohemiancoding.com/sketch/ns"
	 xmlns="http://www.w3.org/2000/svg" xmlns:xlink="http://www.w3.org/1999/xlink" x="0px" y="0px" viewBox="174.4 93.5 151.1 313"
	 style="enable-background:new 174.4 93.5 151.1 313;" xml:space="preserve">
<style type="text/css">
	.st0{fill:none;stroke:#FFFFFF;stroke-width:2;}
</style>
<title>Android outline</title>
<desc>Created with Sketch.</desc>
<g id="Page-1" sketch:type="MSPage">
	<g id="Desktop-HD" transform="translate(-1050.000000, -3135.000000)" sketch:type="MSArtboardGroup">
		<path id="Android-outline_1_" sketch:type="MSShapeGroup" class="st0" d="M1226.9,3344.6h-1.5v-20.8h1.5v-4.8h-1.5v-19.7h1.5
			l0.2-26.5c0-0.8,0-2.2,0-3l-0.2-39.6c0-0.4,0.3-0.7,0.8-0.7h146c0.4,0,0.8,0.3,0.8,0.7v64.9c0,0.4,0,1.1,0,1.5v21.2
			c0,0.4,0,1.1,0,1.5v220.4c0,0.4-0.3,0.8-0.8,0.8h-146c-0.4,0-0.8-0.3-0.8-0.7V3344.6z M1232.4,3258.5c0-0.4,0.3-0.8,0.8-0.8h134.9
			c0.4,0,0.8,0.3,0.8,0.8v254c0,0.4-0.3,0.8-0.8,0.8h-49.8h-85.1c-0.4,0-0.7-0.3-0.7-0.8v-254H1232.4z M1277.7,3248.3
			c1.3,0,2.3-1.1,2.3-2.4s-1-2.4-2.3-2.4s-2.3,1.1-2.3,2.4S1276.4,3248.3,1277.7,3248.3z M1270.4,3248.3c1.3,0,2.3-1.1,2.3-2.4
			s-1-2.4-2.3-2.4s-2.3,1.1-2.3,2.4S1269.1,3248.3,1270.4,3248.3z M1330.7,3249.5c1.9,0,3.4-1.6,3.4-3.6s-1.5-3.6-3.4-3.6
			s-3.4,1.6-3.4,3.6S1328.8,3249.5,1330.7,3249.5z M1289.4,3245.9c0-1.3,1.1-2.4,2.4-2.4h23.4c1.3,0,2.4,1.1,2.4,2.4
			s-1.1,2.4-2.4,2.4h-4.6h-18.8C1290.6,3248.3,1289.4,3247.2,1289.4,3245.9z M1286.2,3526.4c0-3.7,3-6.8,6.8-6.8h20.7
			c3.7,0,6.8,3,6.8,6.8c0,3.7-3,6.8-6.8,6.8c0,0,0.2,0-1.7,0h-19C1289.2,3533.1,1286.2,3530.1,1286.2,3526.4z"/>
	</g>
</g>
</svg>
