<?xml version="1.0" encoding="utf-8"?>
<!-- Generator: Adobe Illustrator 19.1.0, SVG Export Plug-In . SVG Version: 6.00 Build 0)  -->
<svg version="1.1" id="Layer_1" xmlns:sketch="http://www.bohemiancoding.com/sketch/ns"
	 xmlns="http://www.w3.org/2000/svg" xmlns:xlink="http://www.w3.org/1999/xlink" x="0px" y="0px" viewBox="-169 170 161 161"
	 style="enable-background:new -169 170 161 161;" xml:space="preserve">
<style type="text/css">
	.st0{fill:#F8E81C;}
	.st1{fill:none;stroke:#4A4A4A;}
	.st2{enable-background:new    ;}
</style>
<title>Rectangle 20 + iOS Copy 2</title>
<desc>Created with Sketch.</desc>
<g id="Page-1" sketch:type="MSPage">
	<g id="Desktop-HD" transform="translate(-644.000000, -2854.000000)" sketch:type="MSArtboardGroup">
		<g id="Rectangle-20-_x2B_-iOS-Copy-2" transform="translate(647.000000, 2857.000000)" sketch:type="MSLayerGroup">
			<g id="Rectangle-20" sketch:type="MSShapeGroup">
				<path class="st0" d="M-135,174h87c16.6,0,30,13.4,30,30v87c0,16.6-13.4,30-30,30h-87c-16.6,0-30-13.4-30-30v-87
					C-165,187.4-151.6,174-135,174z"/>
				<path class="st1" d="M-135,174h87c16.6,0,30,13.4,30,30v87c0,16.6-13.4,30-30,30h-87c-16.6,0-30-13.4-30-30v-87
					C-165,187.4-151.6,174-135,174z"/>
			</g>
			<g class="st2">
				<path d="M-115.6,241.6h-7.4v-4.9c0-1.4-0.1-2.3-0.2-2.7s-0.5-0.5-1-0.5c-0.6,0-1,0.2-1.2,0.7s-0.2,1.4-0.2,2.8v13.2
					c0,1.4,0.1,2.3,0.2,2.7s0.5,0.6,1.1,0.6c0.6,0,0.9-0.2,1.1-0.6c0.2-0.4,0.3-1.4,0.3-3v-3.6h7.4v1.1c0,2.9-0.2,5-0.6,6.3
					s-1.3,2.3-2.8,3.2c-1.4,0.9-3.2,1.4-5.3,1.4c-2.2,0-4-0.4-5.4-1.2s-2.3-1.9-2.8-3.3s-0.7-3.5-0.7-6.3v-8.3
					c0-2.1,0.1-3.6,0.2-4.6s0.6-2,1.3-3s1.7-1.7,2.9-2.2s2.7-0.8,4.3-0.8c2.2,0,4,0.4,5.4,1.3s2.3,1.9,2.8,3.2s0.7,3.2,0.7,5.9
					V241.6z"/>
				<path d="M-105.8,229.2v28.5h-7.3v-28.5H-105.8z"/>
				<path d="M-87.2,242.5v5.7c0,2.1-0.1,3.6-0.3,4.6s-0.7,1.9-1.4,2.7s-1.6,1.5-2.7,1.9s-2.3,0.6-3.7,0.6c-1.6,0-2.9-0.2-4-0.5
					s-1.9-0.9-2.5-1.6s-1-1.5-1.3-2.5s-0.4-2.5-0.4-4.5v-6c0-2.2,0.2-3.9,0.7-5.1s1.3-2.2,2.5-2.9s2.8-1.1,4.7-1.1
					c1.6,0,3,0.2,4.1,0.7s2,1.1,2.6,1.9s1,1.5,1.3,2.4S-87.2,240.9-87.2,242.5z M-94.3,240.8c0-1.2-0.1-1.9-0.2-2.3
					s-0.4-0.5-0.8-0.5s-0.7,0.2-0.8,0.5s-0.2,1.1-0.2,2.3v10.5c0,1.1,0.1,1.8,0.2,2.2s0.4,0.5,0.8,0.5c0.4,0,0.7-0.2,0.8-0.5
					s0.2-1,0.2-2V240.8z"/>
				<path d="M-68.6,234.3v23.3h-7.2l0.1-1.9c-0.5,0.8-1.1,1.4-1.8,1.8c-0.7,0.4-1.5,0.6-2.5,0.6c-1.1,0-2-0.2-2.7-0.6
					s-1.2-0.9-1.6-1.5s-0.5-1.3-0.6-1.9s-0.1-2-0.1-4v-15.7h7.1v15.9c0,1.8,0.1,2.9,0.2,3.2s0.4,0.5,0.9,0.5c0.5,0,0.8-0.2,0.9-0.5
					s0.1-1.5,0.1-3.4v-15.7H-68.6z"/>
				<path d="M-49.9,229.2v28.5H-57V256c-0.7,0.7-1.4,1.2-2.1,1.6c-0.8,0.4-1.5,0.5-2.4,0.5c-1.1,0-2.1-0.3-2.9-0.9s-1.3-1.3-1.6-2
					s-0.3-2-0.3-3.7v-10.9c0-1.8,0.1-3.1,0.3-3.8s0.8-1.4,1.6-2s1.8-0.9,2.9-0.9c0.9,0,1.7,0.2,2.4,0.5c0.7,0.3,1.4,0.8,2,1.4v-6.6
					H-49.9z M-57,240.2c0-0.9-0.1-1.4-0.2-1.7s-0.4-0.4-0.9-0.4c-0.4,0-0.7,0.1-0.9,0.4s-0.2,0.9-0.2,1.8v11.4
					c0,0.9,0.1,1.6,0.2,1.9s0.4,0.4,0.8,0.4c0.5,0,0.8-0.2,0.9-0.5s0.2-1.2,0.2-2.5V240.2z"/>
			</g>
		</g>
	</g>
</g>
</svg>
