<?xml version="1.0" encoding="utf-8"?>
<!-- Generator: Adobe Illustrator 19.1.0, SVG Export Plug-In . SVG Version: 6.00 Build 0)  -->
<svg version="1.1" xmlns="http://www.w3.org/2000/svg" xmlns:xlink="http://www.w3.org/1999/xlink" x="0px" y="0px"
	 viewBox="-412.7 -52.3 608.3 608.3" style="enable-background:new -412.7 -52.3 608.3 608.3;" xml:space="preserve">
<style type="text/css">
	.st0{fill:none;stroke:#FFFFFF;stroke-width:10;stroke-miterlimit:10;}
	.st1{fill:none;stroke:#FFFFFF;stroke-width:0.5;stroke-miterlimit:10;}
	.st2{fill:#FFFFFF;}
	.st3{fill:none;stroke:#FFFFFF;stroke-width:4.0243;stroke-miterlimit:10;}
	.st4{fill:none;stroke:#FFFFFF;stroke-width:27.3412;stroke-miterlimit:10;}
</style>
<g id="Layer_2">
</g>
<g id="Layer_1">
	<g id="Coffee_Mug">
		<g id="Mug">
			<path class="st0" d="M-108.5,150.1c-46,0-84.2-3.8-90.7-9.1c-0.7,0-0.9,0-0.9,0l29.1,335.2c0.1,1.6,1.3,2.8,3,3.1
				c9.9,0.9,42.7,3.6,56.9,3.8c15.6,0,51.6-2.8,62.1-3.8c1.6-0.1,3-1.5,3.1-3.1l29.1-335.2c0,0-0.4,0-0.9,0
				C-24.3,146.3-62.5,150.1-108.5,150.1z"/>
			<path class="st0" d="M-108.5,149.1c42.9,0,79-2.8,88.9-8.2c0.7,0,1.3,0,1.7,0c0.7,0,0.9-1.1,0.9-1.6c0-5.9-41-10.7-91.6-10.7
				s-91.6,4.8-91.6,10.7c0,0.5,0.4,1.6,0.9,1.6c0.4,0,1.1,0,1.7,0C-187.5,146.3-151.4,149.1-108.5,149.1z"/>
		</g>
		<g id="Coffee">
			<g>
				<polyline class="st1" points="-188,141.5 -185.6,140 -185,142.8 -177.6,138.7 -181.2,143.6 -171.5,138 -175.8,144.3 
					-163.9,137.4 -170.3,144.8 -156.7,136.9 -165,145.2 -150.1,136.6 -160.8,145.5 -145.1,136.5 -155.7,145.8 -139.2,136.2 
					-150,146 -132.6,136.1 -145.3,146.3 -127.5,136 -139.8,146.4 -121.5,136 -135.3,146.6 -116.8,135.8 -131.4,146.7 -112.7,135.8 
					-125.3,146.7 -106.4,135.8 -119.2,146.8 -100.2,135.8 -112.7,146.8 -93.7,136 -107.2,146.8 -88.4,136 -101.1,146.8 -82.6,136.1 
					-95.1,146.8 -76.8,136.2 -90.4,146.7 -72.5,136.5 -83.7,146.6 -66.5,136.6 -78.2,146.4 -61.7,136.9 -71.3,146.2 -55.8,137.3 
					-64.5,145.9 -50.1,137.7 -57.5,145.6 -44.6,138.1 -50,145.1 -39,138.8 -44.8,144.6 -35.4,139.2 -39.3,144 -32.2,140 
					-31.6,142.7 -29.4,141.3 				"/>
			</g>
		</g>
		<g id="Label">
			<path class="st2" d="M-30.2,296.5c-50.4,19.7-106.4,19.7-156.8,0c-1.3-19.9-2.5-39.8-3.9-59.7c52.7,21.9,111.9,21.9,164.5,0
				C-27.5,256.8-28.8,276.7-30.2,296.5z"/>
			<path class="st0" d="M-30.2,296.5c-50.4,19.7-106.4,19.7-156.8,0c-1.3-19.9-2.5-39.8-3.9-59.7c52.7,21.9,111.9,21.9,164.5,0
				C-27.5,256.8-28.8,276.7-30.2,296.5z"/>
		</g>
	</g>
	<g id="Swirl">
		<path class="st3" d="M-86.9,136.6c0,0,10.1-54.5-22.7-67.3s-23.3-64,6.2-46.1c25.9,15.6,9.7,39.6-1.2,29.6"/>
		<path class="st3" d="M-131.2,136.6c0,0,10.1-54.5-22.7-67.3s-23.3-64,6.2-46.1c25.9,15.6,9.7,39.6-1.2,29.6"/>
		<path class="st3" d="M-44,136.6c0,0,10.1-54.5-22.7-67.3s-23.3-64,6.2-46.1c25.9,15.6,9.7,39.6-1.2,29.6"/>
	</g>
	<circle id="Circle" class="st4" cx="-108.5" cy="251.9" r="290.5"/>
</g>
</svg>
