<?xml version="1.0" encoding="utf-8"?>
<!-- Generator: Adobe Illustrator 19.1.0, SVG Export Plug-In . SVG Version: 6.00 Build 0)  -->
<svg version="1.1" id="Layer_1" xmlns:sketch="http://www.bohemiancoding.com/sketch/ns"
	 xmlns="http://www.w3.org/2000/svg" xmlns:xlink="http://www.w3.org/1999/xlink" x="0px" y="0px" viewBox="-169 170 160 161"
	 style="enable-background:new -169 170 160 161;" xml:space="preserve">
<style type="text/css">
	.st0{fill:#F8E81C;}
	.st1{fill:none;stroke:#4A4A4A;}
	.st2{enable-background:new    ;}
</style>
<title>Rectangle 20 + iOS</title>
<desc>Created with Sketch.</desc>
<g id="Page-1" sketch:type="MSPage">
	<g id="Desktop-HD" transform="translate(-252.000000, -2848.000000)" sketch:type="MSArtboardGroup">
		<g id="Rectangle-20-_x2B_-iOS" transform="translate(254.500000, 2851.000000)" sketch:type="MSLayerGroup">
			<g id="Rectangle-20" sketch:type="MSShapeGroup">
				<path class="st0" d="M-135,174h87c16.6,0,30,13.4,30,30v87c0,16.6-13.4,30-30,30h-87c-16.6,0-30-13.4-30-30v-87
					C-165,187.4-151.6,174-135,174z"/>
				<path class="st1" d="M-135,174h87c16.6,0,30,13.4,30,30v87c0,16.6-13.4,30-30,30h-87c-16.6,0-30-13.4-30-30v-87
					C-165,187.4-151.6,174-135,174z"/>
			</g>
			<g class="st2">
				<path d="M-107,231.2v3.7h-7.3v-3.7H-107z M-107,236.3v23.3h-7.3v-23.3H-107z"/>
				<path d="M-87.3,247.9c0,2.9-0.1,4.9-0.2,6.1s-0.6,2.3-1.3,3.3s-1.7,1.7-2.9,2.3s-2.6,0.8-4.2,0.8c-1.5,0-2.9-0.2-4.1-0.7
					s-2.2-1.2-2.9-2.2s-1.2-2.1-1.3-3.3s-0.2-3.2-0.2-6.2V243c0-2.9,0.1-4.9,0.2-6.1s0.6-2.3,1.3-3.3s1.7-1.7,2.9-2.3
					s2.6-0.8,4.2-0.8c1.5,0,2.9,0.2,4.1,0.7s2.2,1.2,2.9,2.2s1.2,2.1,1.3,3.3s0.2,3.2,0.2,6.2V247.9z M-94.7,238.5
					c0-1.3-0.1-2.2-0.2-2.5s-0.4-0.6-0.9-0.6c-0.4,0-0.7,0.1-0.9,0.4s-0.3,1.2-0.3,2.6v13.3c0,1.7,0.1,2.7,0.2,3.1s0.4,0.6,0.9,0.6
					c0.5,0,0.8-0.2,1-0.7s0.2-1.5,0.2-3.2V238.5z"/>
				<path d="M-68.9,239.8h-6.9v-2.1c0-1-0.1-1.6-0.3-1.9s-0.5-0.4-0.9-0.4c-0.4,0-0.8,0.2-1,0.5c-0.2,0.4-0.3,0.9-0.3,1.7
					c0,0.9,0.1,1.7,0.4,2.1c0.2,0.5,0.9,1.1,2.1,1.7c3.3,2,5.4,3.6,6.2,4.8s1.3,3.3,1.3,6.1c0,2-0.2,3.5-0.7,4.5s-1.4,1.8-2.8,2.4
					s-2.9,1-4.7,1c-2,0-3.7-0.4-5.1-1.1s-2.3-1.7-2.8-2.9s-0.7-2.8-0.7-4.9v-1.9h6.9v3.5c0,1.1,0.1,1.8,0.3,2.1s0.5,0.5,1,0.5
					s0.9-0.2,1.1-0.6s0.4-1,0.4-1.7c0-1.7-0.2-2.8-0.7-3.3c-0.5-0.5-1.6-1.4-3.5-2.6c-1.8-1.2-3.1-2.1-3.7-2.7s-1.1-1.3-1.5-2.3
					s-0.6-2.2-0.6-3.7c0-2.2,0.3-3.8,0.8-4.8s1.5-1.8,2.7-2.4s2.7-0.9,4.5-0.9c1.9,0,3.6,0.3,4.9,0.9s2.2,1.4,2.7,2.3
					s0.7,2.5,0.7,4.8V239.8z"/>
			</g>
		</g>
	</g>
</g>
</svg>
