<?xml version="1.0" encoding="utf-8"?>
<!-- Generator: Adobe Illustrator 19.1.0, SVG Export Plug-In . SVG Version: 6.00 Build 0)  -->
<svg version="1.1" id="Layer_1" xmlns="http://www.w3.org/2000/svg" xmlns:xlink="http://www.w3.org/1999/xlink" x="0px" y="0px"
	 viewBox="0 0 293.3 233.7" style="enable-background:new 0 0 293.3 233.7;" xml:space="preserve">
<style type="text/css">
	.st0{fill:#010101;}
	.st1{clip-path:url(#SVGID_2_);fill:#FFFFFF;}
	.st2{clip-path:url(#SVGID_2_);fill:#010101;}
	.st3{clip-path:url(#SVGID_2_);fill:#D2D3D4;}
	.st4{clip-path:url(#SVGID_2_);fill:#F2F2F2;}
	.st5{clip-path:url(#SVGID_2_);fill:none;stroke:#6E6F72;stroke-width:1.114;}
	.st6{clip-path:url(#SVGID_2_);fill:#BDBEC0;}
	
		.st7{clip-path:url(#SVGID_2_);fill:none;stroke:#020202;stroke-width:1.933;stroke-linecap:round;stroke-linejoin:round;stroke-miterlimit:10;}
</style>
<g>
	<g>
		<path class="st0" d="M146.6,218.9C65,218.9,1,202.2,1,180.8s64-38.1,145.6-38.1c81.7,0,145.6,16.7,145.6,38.1
			S228.3,218.9,146.6,218.9z"/>
		<path class="st0" d="M146.6,143.6c79.9,0,144.6,16.6,144.6,37.1s-64.8,37.1-144.6,37.1S2,201.3,2,180.8S66.8,143.6,146.6,143.6
			 M146.6,141.6c-38.8,0-75.3,3.9-102.8,10.9C23.9,157.7,0,166.8,0,180.8s23.9,23.1,43.9,28.2c27.5,7.1,64,10.9,102.8,10.9
			s75.3-3.9,102.8-10.9c20-5.1,43.9-14.2,43.9-28.2s-23.9-23.1-43.9-28.2C221.9,145.5,185.4,141.6,146.6,141.6L146.6,141.6z"/>
	</g>
	<g>
		<defs>
			<path id="SVGID_1_" d="M3.3,0v180.8c0,19.8,64.2,35.8,143.3,35.8c79.2,0,143.3-16,143.3-35.8V0H3.3z"/>
		</defs>
		<clipPath id="SVGID_2_">
			<use xlink:href="#SVGID_1_"  style="overflow:visible;"/>
		</clipPath>
		<path class="st1" d="M60.8,232.4V126.5c0-46.8,38.1-84.9,84.9-84.9c46.8,0,84.9,38.1,84.9,84.9v105.9H60.8z"/>
		<path class="st2" d="M145.7,42.9c46.2,0,83.6,37.4,83.6,83.6v104.6H62.1V126.5C62.1,80.3,99.5,42.9,145.7,42.9 M145.7,40.3
			c-47.5,0-86.2,38.7-86.2,86.2v104.6v2.6h2.6h167.2h2.6v-2.6V126.5C231.8,79,193.2,40.3,145.7,40.3"/>
		<path class="st3" d="M157.7,43.8c-3.9-0.6-7.9-0.9-12-0.9c-46.2,0-83.6,37.4-83.6,83.6v104.6h24.1V126.5
			C86.1,84.4,117.2,49.6,157.7,43.8"/>
		<path class="st2" d="M237.1,130.1c0,7.4-6,13.4-13.4,13.4H68.2c-7.4,0-13.4-6-13.4-13.4v-7.8c0-7.4,6-13.4,13.4-13.4h155.5
			c7.4,0,13.4,6,13.4,13.4V130.1z"/>
		<path class="st2" d="M146.6,126.5c0,23.3-18.9,42.3-42.3,42.3c-23.3,0-42.3-18.9-42.3-42.3c0-23.3,18.9-42.3,42.3-42.3
			C127.7,84.2,146.6,103.1,146.6,126.5"/>
		<path class="st4" d="M104.3,158.6c-17.8,0-32.2-14.5-32.2-32.2c0-17.8,14.5-32.2,32.2-32.2c17.8,0,32.2,14.5,32.2,32.2
			C136.5,144.2,122.1,158.6,104.3,158.6"/>
		<path class="st5" d="M104.3,158.6c-17.8,0-32.2-14.5-32.2-32.2c0-17.8,14.5-32.2,32.2-32.2c17.8,0,32.2,14.5,32.2,32.2
			C136.5,144.2,122.1,158.6,104.3,158.6z"/>
		<path class="st1" d="M104.3,97.3c-15.9,0-28.9,13-28.9,28.9c0,15.9,13,28.9,28.9,28.9c15.9,0,28.9-13,28.9-28.9
			C133.2,110.3,120.2,97.3,104.3,97.3"/>
		<path class="st2" d="M119.1,122.8h-11.2v-11.2c0-2-1.6-3.6-3.6-3.6c-2,0-3.6,1.6-3.6,3.6v11.2H89.5c-2,0-3.6,1.6-3.6,3.6
			c0,2,1.6,3.6,3.6,3.6h11.2v11.2c0,2,1.6,3.6,3.6,3.6c2,0,3.6-1.6,3.6-3.6V130h11.2c2,0,3.6-1.6,3.6-3.6
			C122.7,124.4,121.1,122.8,119.1,122.8"/>
		<path class="st6" d="M104.3,97.3c-9.1,0-17.3,4.3-22.6,10.9c4.9-3.9,11.2-6.3,18-6.3c15.9,0,28.9,13,28.9,28.9
			c0,6.8-2.4,13-6.3,18c6.6-5.3,10.9-13.5,10.9-22.6C133.2,110.3,120.2,97.3,104.3,97.3"/>
		<path class="st2" d="M231.2,126.5c0,23.3-18.9,42.3-42.3,42.3c-23.3,0-42.3-18.9-42.3-42.3c0-23.3,18.9-42.3,42.3-42.3
			C212.3,84.2,231.2,103.1,231.2,126.5"/>
		<path class="st4" d="M188.8,158.6c-17.8,0-32.2-14.5-32.2-32.2c0-17.8,14.5-32.2,32.2-32.2c17.8,0,32.2,14.5,32.2,32.2
			C221.1,144.2,206.6,158.6,188.8,158.6"/>
		<path class="st5" d="M188.8,158.6c-17.8,0-32.2-14.5-32.2-32.2c0-17.8,14.5-32.2,32.2-32.2c17.8,0,32.2,14.5,32.2,32.2
			C221.1,144.2,206.6,158.6,188.8,158.6z"/>
		<path class="st1" d="M188.8,97.3c-15.9,0-28.9,13-28.9,28.9c0,15.9,13,28.9,28.9,28.9c15.9,0,28.9-13,28.9-28.9
			C217.7,110.3,204.8,97.3,188.8,97.3"/>
		<path class="st2" d="M203.6,122.8h-11.2v-11.2c0-2-1.6-3.6-3.6-3.6c-2,0-3.6,1.6-3.6,3.6v11.2H174c-2,0-3.6,1.6-3.6,3.6
			c0,2,1.6,3.6,3.6,3.6h11.2v11.2c0,2,1.6,3.6,3.6,3.6c2,0,3.6-1.6,3.6-3.6V130h11.2c2,0,3.6-1.6,3.6-3.6
			C207.2,124.4,205.6,122.8,203.6,122.8"/>
		<path class="st6" d="M188.8,97.3c-9.1,0-17.3,4.3-22.6,10.9c4.9-3.9,11.2-6.3,18-6.3c15.9,0,28.9,13,28.9,28.9
			c0,6.8-2.4,13-6.3,18c6.7-5.3,10.9-13.5,10.9-22.6C217.7,110.3,204.8,97.3,188.8,97.3"/>
		<path class="st2" d="M164.5,178.5c0,3.7-8.9,16.8-17.8,16.8c-9,0-17.9-13-17.9-16.8c0-7.5,8-13.5,17.9-13.5
			C156.5,165,164.5,171.1,164.5,178.5"/>
		<path class="st1" d="M153.9,174.7c0,2.9-3.3,1.2-7.3,1.2c-4,0-7.3,1.7-7.3-1.2c0-2.9,3.9-5.4,7.3-5.4
			C150.2,169.3,153.9,171.8,153.9,174.7"/>
		<path class="st1" d="M171.3,56.3c0,0-16.4-9.3-24.6-16.8c-8.7-8-12.1-10.8-14.7-14.3l-2.9-3.9c0,0,3.8,10.1,6.2,13.8
			c2.2,3.4-0.8,6.5-6,2.2c-5.2-4.3-7.8-6.3-7.8-6.3s9.3,17.9,0.4,13.3c-15.5-8-6.8,0.2-6.8,0.2s10.6,13.2-0.5,20.5"/>
		<path class="st7" d="M171.3,56.3c0,0-16.4-9.3-24.6-16.8c-8.7-8-12.1-10.8-14.7-14.3l-2.9-3.9c0,0,3.8,10.1,6.2,13.8
			c2.2,3.4-0.8,6.5-6,2.2c-5.2-4.3-7.8-6.3-7.8-6.3s9.3,17.9,0.4,13.3c-15.5-8-6.8,0.2-6.8,0.2s10.6,13.2-0.5,20.5"/>
	</g>
</g>
</svg>
